<svg width="100" height="100" viewBox="0 0 100 100" xmlns="http://www.w3.org/2000/svg">
  <defs>
    <pattern id="grid" width="100" height="100" patternUnits="userSpaceOnUse">
      <path d="M0 0 L50 0 L50 50 L0 50 Z" fill="none" stroke="#3563E9" stroke-width="0.5" stroke-opacity="0.1" />
      <path d="M50 0 L100 0 L100 50 L50 50 Z" fill="none" stroke="#3563E9" stroke-width="0.5" stroke-opacity="0.1" />
      <path d="M0 50 L50 50 L50 100 L0 100 Z" fill="none" stroke="#3563E9" stroke-width="0.5" stroke-opacity="0.1" />
      <path d="M50 50 L100 50 L100 100 L50 100 Z" fill="none" stroke="#3563E9" stroke-width="0.5" stroke-opacity="0.1" />
      <circle cx="50" cy="50" r="2" fill="#3563E9" fill-opacity="0.2" />
      <circle cx="0" cy="0" r="1" fill="#3563E9" fill-opacity="0.2" />
      <circle cx="0" cy="50" r="1" fill="#3563E9" fill-opacity="0.2" />
      <circle cx="0" cy="100" r="1" fill="#3563E9" fill-opacity="0.2" />
      <circle cx="50" cy="0" r="1" fill="#3563E9" fill-opacity="0.2" />
      <circle cx="50" cy="100" r="1" fill="#3563E9" fill-opacity="0.2" />
      <circle cx="100" cy="0" r="1" fill="#3563E9" fill-opacity="0.2" />
      <circle cx="100" cy="50" r="1" fill="#3563E9" fill-opacity="0.2" />
      <circle cx="100" cy="100" r="1" fill="#3563E9" fill-opacity="0.2" />
    </pattern>
  </defs>
  <rect width="100" height="100" fill="url(#grid)" />
</svg> 