<?xml version="1.0" encoding="UTF-8" standalone="no"?>
<!DOCTYPE svg PUBLIC "-//W3C//DTD SVG 1.1//EN" "http://www.w3.org/Graphics/SVG/1.1/DTD/svg11.dtd">
<svg width="100%" height="100%" viewBox="0 0 781 781" version="1.1" xmlns="http://www.w3.org/2000/svg" xmlns:xlink="http://www.w3.org/1999/xlink" xml:space="preserve" xmlns:serif="http://www.serif.com/" style="fill-rule:evenodd;clip-rule:evenodd;stroke-linejoin:round;stroke-miterlimit:2;">
    <g transform="matrix(1,0,0,1,-1313.61,-798.901)">
        <g transform="matrix(4.16667,0,0,4.16667,2012.46,1457.81)">
            <path d="M0,-133.924C26.113,-107.811 26.113,-65.474 0,-39.361L-23.493,-15.867L-31.426,-7.935L-64.511,25.151C-70.102,30.742 -79.239,30.626 -84.684,24.805C-89.892,19.237 -89.481,10.443 -84.09,5.052L-61.184,-17.854C-55.705,-23.333 -55.705,-32.215 -61.184,-37.693C-66.661,-43.171 -75.543,-43.171 -81.022,-37.693L-135.287,16.572C-140.877,22.163 -150.014,22.048 -155.459,16.226C-160.667,10.659 -160.256,1.864 -154.865,-3.527L-100.86,-57.531C-95.382,-63.01 -95.382,-71.892 -100.86,-77.37C-106.339,-82.848 -115.221,-82.848 -120.699,-77.37L-143.865,-54.204C-149.457,-48.612 -158.593,-48.728 -164.038,-54.549C-169.246,-60.117 -168.835,-68.911 -163.444,-74.302L-130.618,-107.128L-122.687,-115.06L-99.192,-138.553C-73.08,-164.666 -30.742,-164.666 -4.63,-138.553L0,-133.924ZM-41.247,-51.85C-35.637,-46.241 -26.542,-46.241 -20.933,-51.85L-18.713,-54.07C-0.674,-72.109 -0.674,-101.355 -18.713,-119.394C-36.752,-137.433 -65.998,-137.433 -84.037,-119.394L-86.256,-117.174C-91.866,-111.565 -91.866,-102.47 -86.256,-96.86L-41.247,-51.85Z" style="fill:white;"/>
        </g>
        <g transform="matrix(-0.0115112,-5.43796,-5.43796,0.0115112,1813.08,1025.96)">
            <path d="M-10.237,-10.237C-15.889,-10.237 -20.473,-5.653 -20.473,-0.001C-20.473,5.654 -15.889,10.237 -10.237,10.237C-4.584,10.237 0,5.654 0,-0.001C0,-5.653 -4.584,-10.237 -10.237,-10.237" style="fill:white;fill-rule:nonzero;"/>
        </g>
    </g>
</svg>
