<svg width="120" height="40" viewBox="0 0 120 40" fill="none" xmlns="http://www.w3.org/2000/svg">
  <path d="M15 10H25V15H22.5V30H17.5V15H15V10Z" fill="#3563E9"/>
  <path d="M35 10H30V30H35V10Z" fill="#3563E9"/>
  <path d="M45 10H40V30H45V10Z" fill="#3563E9"/>
  <path fillRule="evenodd" clipRule="evenodd" d="M57.5 10H52.5V30H57.5V22.5H65V30H70V10H65V17.5H57.5V10Z" fill="#3563E9"/>
  <path d="M75 10H85C87.7614 10 90 12.2386 90 15V25C90 27.7614 87.7614 30 85 30H75V10ZM80 15V25H85V15H80Z" fill="#3563E9"/>
  <path d="M95 15C95 12.2386 97.2386 10 100 10H110C112.761 10 115 12.2386 115 15V25C115 27.7614 112.761 30 110 30H100C97.2386 30 95 27.7614 95 25V15ZM100 15V25H110V15H100Z" fill="#3563E9"/>
</svg> 