<svg xmlns="http://www.w3.org/2000/svg" viewBox="0 0 512 144" fill="#FF5A5F">
  <path d="M291.5,54.9c0,9.5-7.7,17.1-17.1,17.1c-9.5,0-17.1-7.7-17.1-17.1c0-9.5,7.7-17.1,17.1-17.1 C283.8,37.8,291.5,45.4,291.5,54.9z M255.4,107.9v2c0,0.8,0.6,1.4,1.4,1.4h7c0.8,0,1.4-0.6,1.4-1.4v-41c0-0.8-0.6-1.4-1.4-1.4h-7 c-0.8,0-1.4,0.6-1.4,1.4V107.9z M344.8,75.8c0-13.9-8.8-24.8-22-24.8c-7.7,0-13.1,3.3-16.6,7.4v-4.6c0-0.8-0.6-1.4-1.4-1.4h-7 c-0.8,0-1.4,0.6-1.4,1.4v58.1c0,0.8,0.6,1.4,1.4,1.4h7c0.8,0,1.4-0.6,1.4-1.4V82.9c0-8.3,5.3-14.9,13.2-14.9 c8.4,0,12.1,5.8,12.1,14.4v27.5c0,0.8,0.6,1.4,1.4,1.4h7c0.8,0,1.4-0.6,1.4-1.4L344.8,75.8L344.8,75.8z M302.9,69.1 c0-0.8-0.6-1.4-1.4-1.4h-7c-0.8,0-1.4,0.6-1.4,1.4v41c0,0.8,0.6,1.4,1.4,1.4h7c0.8,0,1.4-0.6,1.4-1.4V69.1z M202.4,89 c0,11.8,9.3,20.6,22.1,20.6c10.9,0,18.1-6.4,20.3-15.2c0.2-0.8-0.3-1.5-1.1-1.5h-6.8c-0.5,0-1,0.2-1.2,0.8 c-1.7,4.1-5.4,7.6-11.2,7.6c-7.8,0-13-5.5-13-12.4c0-6.8,5.3-12.3,13-12.3c5.5,0,9.4,3,11.1,7.3c0.2,0.5,0.8,0.8,1.2,0.8h6.8 c0.8,0,1.3-0.8,1.1-1.5c-2.1-8.8-9.8-15.1-20.2-15.1C211.9,68.3,202.4,77.3,202.4,89z M419.7,68.5L403.4,106 c-0.2,0.5-0.8,0.5-1,0l-16.3-37.5c-0.3-0.7-0.9-1-1.6-1h-7c-0.7,0-1.1,0.7-0.9,1.3l23.6,53.9l-0.2,0.4 c-1.6,3.9-4.1,5.7-8.7,5.7c-0.5,0-1.1,0-1.7-0.1c-0.7-0.1-1.3,0.4-1.3,1.1v5.7c0,0.7,0.5,1.2,1.2,1.3c1.1,0.1,2.1,0.1,2.9,0.1 c8.7,0,13.5-3.9,18.2-13.4l25.3-55.9c0.3-0.7-0.2-1.4-0.9-1.4h-7.2C420.5,67.7,420,68,419.7,68.5z M170.1,51.7 c-2.7,0-4.9,2.2-4.9,4.9c0,2.7,2.2,4.9,4.9,4.9c2.7,0,4.9-2.2,4.9-4.9C175,53.9,172.8,51.7,170.1,51.7z M142.7,85.9 c0-0.2,0-0.5,0-0.7c0-11.1,8.7-18.6,20.1-18.6c11.5,0,20.1,7.6,20.1,18.6c0,10.9-8.7,18.5-20.1,18.5 C151.4,103.6,142.7,96.1,142.7,85.9z M157.3,66.6c-5.5,0-11.1,2.7-14.5,6.9V44.1c0-0.8-0.6-1.4-1.4-1.4h-7c-0.8,0-1.4,0.6-1.4,1.4 v65.8c0,0.8,0.6,1.4,1.4,1.4h7c0.8,0,1.4-0.6,1.4-1.4v-4.2c3.4,4.3,9,7,14.5,7c14.5,0,24.5-11.3,24.5-26.4 C181.8,77.9,171.8,66.6,157.3,66.6z M142.7,96.1v-20c3.5-3.9,8.6-5.7,13.8-5.7c9.6,0,15.4,7.5,15.4,17.4c0,9.9-5.8,17.3-15.4,17.3 C151.4,105.1,146.2,100.1,142.7,96.1z M372.2,66.6c-5.5,0-11.1,2.7-14.5,6.9V44.1c0-0.8-0.6-1.4-1.4-1.4h-7c-0.8,0-1.4,0.6-1.4,1.4 v65.8c0,0.8,0.6,1.4,1.4,1.4h7c0.8,0,1.4-0.6,1.4-1.4v-4.2c3.4,4.3,9,7,14.5,7c14.5,0,24.5-11.3,24.5-26.4 C396.7,77.9,386.7,66.6,372.2,66.6z M357.6,96.1v-20c3.5-3.9,8.6-5.7,13.8-5.7c9.6,0,15.4,7.5,15.4,17.4c0,9.9-5.8,17.3-15.4,17.3 C366.2,105.1,361.1,100.1,357.6,96.1z"></path>
</svg> 