<svg xmlns="http://www.w3.org/2000/svg" viewBox="0 0 602 182" fill="none">
  <path d="M373.643 139.675c-34.704 25.551-85.044 39.112-128.331 39.112-60.666 0-115.375-22.398-156.836-59.65-3.252-2.949-.347-6.96 3.566-4.667 44.71 26.01 99.98 41.648 157.117 41.648 38.5 0 80.857-7.98 119.775-24.54 5.87-2.493 10.784 3.857 4.71 8.097z" fill="#FF9900"/>
  <path d="M388.66 122.353c-4.434-5.676-29.344-2.697-40.55-1.353-3.39.397-3.913-2.54-.853-4.667 19.868-13.952 52.434-9.927 56.185-5.259 3.757 4.72-1.03 37.339-19.634 52.912-2.86 2.397-5.57 1.127-4.314-2.039 4.194-10.46 13.574-33.975 9.166-39.594z" fill="#FF9900"/>
  <path d="M348.739 24.921V13.325c.007-2.15 1.629-3.576 3.592-3.576h63.476c2.036 0 3.665 1.445 3.665 3.576v9.933c-.022 2.027-1.732 4.675-4.754 8.87l-32.888 46.897c12.208-.288 25.118 1.535 36.215 7.747 2.495 1.39 3.17 3.446 3.358 5.461v12.38c0 2.05-2.254 4.448-4.626 3.21-19.32-10.124-44.964-11.227-66.278.123-2.174 1.155-4.45-1.172-4.45-3.222V94.227c0-2.277.032-6.175 2.321-9.64l38.096-54.626h-33.157c-2.036 0-3.658-1.427-3.658-3.554l.088-.486zM123.914 125.103h-19.292c-1.844-.134-3.31-1.514-3.456-3.277V13.567c0-1.983 1.665-3.554 3.729-3.554h17.999c1.88.095 3.382 1.53 3.523 3.332v14.137h.354c4.693-12.506 13.505-18.354 25.384-18.354 12.072 0 19.612 5.848 25.032 18.354 4.67-12.506 15.304-18.354 26.674-18.354 8.095 0 16.946 3.332 22.352 10.818 6.128 8.317 4.87 20.387 4.87 30.985l-.014 74.033c0 1.988-1.662 3.559-3.732 3.559h-19.278c-1.939-.134-3.474-1.685-3.474-3.559V59.269c0-4.75.428-16.602-.616-21.103-1.648-7.58-6.577-9.712-12.967-9.712-5.35 0-10.928 3.577-13.198 9.266-2.271 5.69-2.059 15.196-2.059 21.55v62.558c0 1.988-1.662 3.559-3.729 3.559h-19.278c-1.942-.134-3.477-1.685-3.477-3.559l-.007-62.558c0-12.569 2.058-31.04-13.58-31.04-15.828 0-15.225 18.056-15.225 31.04v62.558c0 1.988-1.662 3.559-3.729 3.559l-.002-.274zM550.348 8.721c28.583 0 44.038 24.551 44.038 55.795 0 30.149-17.083 54.108-44.038 54.108-28.048 0-43.349-24.551-43.349-55.179 0-30.828 15.48-54.724 43.349-54.724zm.178 20.202c-14.214 0-15.113 19.345-15.113 31.402 0 12.066-.178 37.874 14.935 37.874 14.935 0 15.668-20.81 15.668-33.448 0-8.319-.355-18.27-2.877-26.192-2.15-6.918-6.408-9.636-12.613-9.636zM212.563 125.103h-19.229c-1.938-.134-3.473-1.685-3.473-3.559l-.02-108.202c.163-1.8 1.765-3.21 3.716-3.21h17.91c1.686.085 3.083 1.228 3.437 2.736v16.56h.358c5.417-13.57 12.998-20.058 26.368-20.058 8.688 0 17.18 3.139 22.619 11.733 5.064 8.01 5.064 21.485 5.064 31.162v62.944c-.219 1.746-1.82 3.114-3.717 3.114h-19.367c-1.769-.134-3.229-1.444-3.434-3.114V60.833c0-12.37 1.427-30.457-13.775-30.457-5.34 0-10.26 3.576-12.71 9.02-3.087 6.86-3.507 13.705-3.507 21.437v61.711c-.031 1.988-1.707 3.559-3.774 3.559h-.466z" fill="#000"/>
  <path d="M487.633 81.58c0 7.553.18 13.843-3.621 20.55-3.076 5.53-7.97 8.905-13.401 8.905-7.434 0-11.773-5.664-11.773-14.028 0-16.505 14.787-19.516 28.795-19.516v4.09zm19.508 47.158c-1.28 1.149-3.128 1.228-4.57.457-6.417-5.327-7.584-7.79-11.098-12.864-10.613 10.818-18.15 14.066-31.908 14.066-16.31 0-28.97-10.058-28.97-30.211 0-15.733 8.527-26.448 20.655-31.677 10.52-4.614 25.2-5.43 36.42-6.705v-2.508c0-4.601.359-10.057-2.363-14.026-2.352-3.577-6.88-5.043-10.862-5.043-7.38 0-13.95 3.783-15.556 11.623-.33 1.741-1.614 3.457-3.34 3.545l-18.754-2.025c-1.585-.365-3.34-1.666-2.873-4.138C439.068 29.145 460.06 21.8 479.15 21.8c9.772 0 22.53 2.601 30.23 9.994 9.772 9.108 8.845 21.254 8.845 34.475v31.171c0 9.386 3.891 13.504 7.548 18.591a3.723 3.723 0 01-.093 5.252c-2.532 2.118-7.032 6.03-9.51 8.22l-.03.235zM90.495 81.58c0 7.553.185 13.843-3.608 20.55-3.082 5.53-7.962 8.905-13.41 8.905-7.425 0-11.764-5.664-11.764-14.028 0-16.505 14.785-19.516 28.782-19.516v4.09zm19.516 47.158c-1.276 1.149-3.126 1.228-4.565.457-6.423-5.327-7.576-7.79-11.102-12.864-10.602 10.818-18.144 14.066-31.903 14.066-16.294 0-28.967-10.058-28.967-30.211 0-15.733 8.535-26.448 20.66-31.677 10.523-4.614 25.187-5.43 36.412-6.705v-2.508c0-4.601.368-10.057-2.355-14.026-2.36-3.577-6.874-5.043-10.856-5.043-7.37 0-13.953 3.783-15.56 11.623-.326 1.741-1.604 3.457-3.34 3.545L39.68 53.37c-1.58-.365-3.33-1.666-2.867-4.138C41.938 29.145 62.936 21.8 82.026 21.8c9.76 0 22.53 2.601 30.226 9.994 9.76 9.108 8.835 21.254 8.835 34.475v31.171c0 9.386 3.895 13.504 7.556 18.591a3.728 3.728 0 01-.099 5.252c-2.53 2.118-7.032 6.03-9.51 8.22l-.022.235z" fill="#000"/>
</svg> 