<svg xmlns="http://www.w3.org/2000/svg" viewBox="0 0 528 128" fill="#0061FF">
  <path d="M94.9,26.5L61.5,2.2L33.1,24.9l34,22.2L94.9,26.5z M31.5,53.7L0,32.5l28.4-20.5l33.5,22.2L31.5,53.7z M94.9,58.3 l-33.4,22.6L33.1,56.9l34-24.3L94.9,58.3z M0,60.9l31.5,20.5l33.5-22.7l-31-21.2L0,60.9z M63.1,102.4l33.4-21.7l-25.8-18.8 l-33.4,22.6L63.1,102.4z M247.9,50.9c0-8.8,4.2-16.1,13.7-16.1c9.6,0,13.6,7.2,13.6,16.1c0,8.8-4,16.1-13.6,16.1 C252.1,66.9,247.9,59.7,247.9,50.9z M232.5,51c0,18.1,11.6,29.9,29,29.9c17.4,0,29-11.9,29-30c0-18.1-11.6-29.9-29-29.9 C244.1,21.1,232.5,32.9,232.5,51z M200.1,42.7c0-5.3-3.4-7.9-9-7.9h-6.4v15.8h6.4C196.7,50.6,200.1,48,200.1,42.7z M184.7,22.1 h12.4c13.1,0,18.1,7.3,18.1,15.6c0,5.3-2.6,11.9-10.1,14.4l13.6,27h-15.8l-10.9-24.9h-7.3v24.9h-15.1V22.1H184.7z M316.5,22.1h15 v56.9h-15V22.1z M154.4,69.7c4.8,0,8.6-2,10.7-4.9v4.2h14.4V41.6c0-13.4-9.6-20.5-22.4-20.5c-14.1,0-22.9,7.9-22.9,17.4h14.1 c0-3.3,2.9-5.9,8.4-5.9c4.8,0,8.4,2.1,8.4,7.4V42c-15.3,1.4-30.1,4.7-30.1,18c0,10.3,8.1,15.9,19.1,15.9 C149.3,75.9,152.2,73.4,154.4,69.7z M153.3,65.1c-4,0-6.7-1.9-6.7-5.3c0-4.6,5.5-6.1,14.5-7v1.8 C161.1,59.8,158.3,65.1,153.3,65.1z M343.8,22c4,0,7.3,3.3,7.3,7.3c0,4-3.3,7.3-7.3,7.3c-4,0-7.3-3.3-7.3-7.3 C336.5,25.3,339.7,22,343.8,22z M343.8,35.5c3.4,0,6.2-2.8,6.2-6.2c0-3.4-2.8-6.2-6.2-6.2c-3.4,0-6.2,2.8-6.2,6.2 C337.5,32.7,340.3,35.5,343.8,35.5z M342.3,26.8h1.8c1.1,0,1.9,0.7,1.9,1.7c0,0.7-0.4,1.3-1.1,1.5l1.3,2.1h-1.1l-1.2-2h-0.6v2 h-1V26.8z M343.2,29.2h0.7c0.7,0,1.1-0.2,1.1-0.8c0-0.5-0.4-0.7-1.1-0.7h-0.7V29.2z M442.8,58.2c-5,0-8.7-3.6-9.3-9.3h36 c0.1-1.3,0.2-2.6,0.2-3.9c0-14.6-9.2-24-24.2-24c-14.8,0-25.5,10.4-25.5,25.9c0,15.1,10.9,25.9,26.8,25.9c11.9,0,20.9-6.4,23.3-15 h-13.9C454.9,55.1,451.1,58.2,442.8,58.2z M442.8,33.1c5.2,0,8.5,2.9,9.1,8h-19.6C433.2,36.4,437.4,33.1,442.8,33.1z M413.9,22.1 v34.7c0,3.9-2.1,5.8-5.5,5.8c-4.4,0-5.1-3.1-5.1-5.8V22.1h-15v35.5c0,11.8,7.1,21.3,20,21.3c7.1,0,13.1-3.3,15.7-8.4v7.5h14.9V22.1 H413.9z M493.1,69.7c4.8,0,8.6-2,10.7-4.9v4.2h14.4V41.6c0-13.4-9.6-20.5-22.4-20.5c-14.1,0-22.9,7.9-22.9,17.4h14.1 c0-3.3,2.9-5.9,8.4-5.9c4.8,0,8.4,2.1,8.4,7.4V42c-15.3,1.4-30.1,4.7-30.1,18c0,10.3,8.1,15.9,19.1,15.9 C488,75.9,490.9,73.4,493.1,69.7z M492,65.1c-4,0-6.7-1.9-6.7-5.3c0-4.6,5.5-6.1,14.5-7v1.8C499.8,59.8,497,65.1,492,65.1z M389.3,37.4V79h15V37.4h8.4V22.1h-8.4V12.6h-15v9.5h-8.4v15.3H389.3z M68.2,69.2L44.2,53.7l25.6,17.1l24-17.1L68.2,69.2z"></path>
</svg> 