<svg xmlns="http://www.w3.org/2000/svg" viewBox="0 0 512 145" fill="none">
  <path d="M107.761 29.412c0-.453.02-.886-.233-1.258-.253-.433-.705-.654-1.229-.674-2.889-.14-7.211-.06-10.363.794-.736-2.173-1.986-4.166-3.492-5.886-2.608-2.946-6.08-4.527-9.612-4.527h-.393c-1.37-1.801-3.078-2.757-4.989-2.757-12.407.02-18.333 15.584-20.239 23.517-4.815 1.5-8.226 2.567-8.287 2.587-2.588.814-2.689.893-3.038 3.32C45.767 45.319 40 112.447 40 112.447l55.983 10.419 30.303-6.473S107.801 30.308 107.761 29.412zm-18.313 4.287c-2.246.714-4.815 1.52-7.514 2.354-.914-5.706-2.49-13.864-5.297-21.085 4.144 1.037 6.896 3.872 8.287 8.42a54.336 54.336 0 01-1.33 8.46 4.328 4.328 0 015.854 1.85zm-12.598 3.931c-3.905 1.217-8.126 2.538-12.468 3.872-1.208-9.637-4.083-19.273-8.692-19.273-.192 0-.394.02-.586.04-.212-2.454-.93-3.63-1.556-4.045 3.804 1.097 6.452 4.246 8.065 9.098 1.227 3.69 2.131 8.3 2.71 12.805-4.663 1.439-9.558 2.946-14.54 4.467-3.906 1.179-7.83 2.355-11.654 3.51 2.467-9.438 8.467-19.592 15.079-19.592.395 0 .79.04 1.166.12a11.227 11.227 0 00-.477 3.23c.82-.2.233-.04.394-.04 1.49 0 3.077 1.88 4.242 6.272-1.553.374-2.428 2.073-1.723 3.53.424.873 1.29 1.36 2.19 1.36.31 0 .619-.06.929-.18.81 5.926 2.302 12.825 4.37 18.991l-19.456 5.965a12.324 12.324 0 00-.79-2.314 9.97 9.97 0 00-9.145-6.072c-6.39 0-12.7 5.12-14.234 12.564a9.131 9.131 0 00.151 4.226 7.426 7.426 0 00.99 2.174 9.939 9.939 0 0013.062 3.19 13.568 13.568 0 003.493-3.47c1.31 6.772 8.003 9.618 14.85 9.618 6.37 0 9.53-2.153 12.447-5.12 1.37 3.35 3.41 5.12 6.101 5.12 4.16 0 8.265-4.505 11.579-12.204-.735-.534-1.855-1.841-2.55-3.933-2.262 6.452-4.227 8.42-5.63 8.42-2.447 0-3.991-7.524-3.991-7.524s-.022-.14-.06-.34c3.54-1.14 6.72-2.354 9.462-4.207 2.689-1.84 4.777-4.267 6.12-7.724.915-2.334 1.513-5.06 1.828-8.28.193-1.68.255-3.53.137-5.566 2.285-.693 4.41-1.338 6.283-1.9.596-.16 1.025-.52 1.208-.996-1.553.32-3.255.633-5.112.985a79.301 79.301 0 00-.172-3.65 163.71 163.71 0 018.732-2.736c0 .014.02-.453-.31-.573 0 0-6.37 1.359-9.387 2.093a40.173 40.173 0 00-.637-5.266zm-12.973 47.6c-2.265 0-3.297-1.141-3.297-2.847 0-4.868 4.79-8.02 7.828-9.04-.636 3.45-2.443 11.886-4.531 11.886zm16.943-31.897c-.636 1.58-1.498 2.842-2.58 3.902-1.067 1.057-2.337 1.9-3.746 2.666-1.4.758-2.918 1.403-4.472 2.016.477-5.005.469-10.05.098-14.835a175.622 175.622 0 014.972-1.583c2.04-.633 3.945-1.217 5.65-1.76a84.733 84.733 0 01.078 9.594z" fill="#95BF47"/>
  <path d="M107.76 29.412c0-.453.02-.886-.233-1.258-.252-.433-.705-.654-1.229-.674-2.888-.14-7.21-.06-10.363.794-.735-2.173-1.986-4.166-3.492-5.886-2.608-2.946-6.08-4.527-9.612-4.527h-.393c-1.37-1.801-3.078-2.757-4.989-2.757-12.407.02-18.332 15.584-20.239 23.517-4.816 1.5-8.227 2.567-8.288 2.587-2.588.814-2.689.893-3.038 3.32C45.767 45.319 40 112.447 40 112.447l55.983 10.419 30.302-6.473S107.801 30.308 107.76 29.412zM77.45 37.63a163.71 163.71 0 00-8.732 2.735c.098 1.217.155 2.454.172 3.65 1.857-.352 3.559-.666 5.112-.985-.183.476-.612.836-1.208.996-1.874.563-3.998 1.207-6.283 1.9.118 2.035.056 3.885-.137 5.566-.315 3.22-.913 5.945-1.828 8.28-1.343 3.457-3.431 5.885-6.12 7.724-2.742 1.853-5.923 3.067-9.462 4.207.039.2.06.34.06.34s1.544 7.523 3.991 7.523c1.403 0 3.367-1.967 5.63-8.419.695 2.092 1.815 3.4 2.55 3.933-3.314 7.699-7.418 12.204-11.58 12.204-2.69 0-4.729-1.77-6.1-5.12-2.918 2.967-6.077 5.12-12.447 5.12-6.847 0-13.54-2.846-14.85-9.618a13.568 13.568 0 01-3.493 3.47 9.94 9.94 0 01-13.063-3.19 7.426 7.426 0 01-.989-2.174 9.131 9.131 0 01-.152-4.226c1.536-7.444 7.845-12.564 14.235-12.564a9.97 9.97 0 019.145 6.072c.35.771.619 1.54.79 2.314l19.455-5.965c-2.069-6.166-3.56-13.065-4.37-18.99-.31.12-.618.18-.928.18-.9 0-1.767-.488-2.19-1.36-.705-1.458.17-3.157 1.722-3.53-1.165-4.392-2.752-6.273-4.242-6.273-.16 0-.312.02-.394.04.11-1.088.274-2.166.477-3.23-.375-.08-.77-.12-1.166-.12-6.612 0-12.612 10.153-15.079 19.592 3.825-1.155 7.75-2.33 11.654-3.51 4.983-1.52 9.878-3.028 14.54-4.467-.578-4.505-1.483-9.118-2.71-12.805-1.613-4.852-4.261-8-8.064-9.098.625.415 1.343 1.59 1.556 4.045.192-.02.394-.04.586-.04 4.609 0 7.484 9.636 8.692 19.273 4.342-1.334 8.563-2.655 12.468-3.872.176 1.842.372 3.605.637 5.266 3.017-.734 9.387-2.093 9.387-2.093.33.12.31.587.31.573zm-21.286 35.77c-3.04 1.02-7.83 4.172-7.83 9.04 0 1.707 1.03 2.848 3.297 2.848 2.088 0 3.895-8.437 4.533-11.887z" fill="#5E8E3E"/>
  <path d="M106.297 27.48c-.252-.433-.705-.654-1.229-.674-2.888-.14-7.21-.06-10.363.794a18.632 18.632 0 00-3.184-5.726l2.45-.384s-1.858-1.96-4.118-1.718c-2.26.24-3.35.513-3.35.513s-.72-1.92-1.938-3.677c-.196-.279-.398-.553-.608-.826.002-.001.001-.006 0-.008-1.371-1.81-3.085-2.768-5.002-2.768a10.267 10.267 0 00-2.223.255l-.001-.016a12.327 12.327 0 00-9.46 6.672l3.16-.492s-5.483 11.051-5.813 11.97c-.33.917-.483 2.53-.483 2.53l19.386-2.51 9.193-1.99s7.8-1.693 13.783-2.943c.596-.16 1.025-.52 1.208-.996-.183.476-.612.836-1.208.996-1.874.563-3.998 1.207-6.283 1.9.118 2.035.056 3.885-.137 5.566-.315 3.22-.913 5.945-1.828 8.28-1.343 3.457-3.431 5.885-6.12 7.724-2.742 1.853-5.923 3.067-9.462 4.207.039.2.06.34.06.34s1.544 7.523 3.991 7.523c1.403 0 3.367-1.967 5.63-8.419.695 2.092 1.815 3.4 2.55 3.933-3.314 7.699-7.418 12.204-11.58 12.204-2.689 0-4.729-1.77-6.1-5.12-2.918 2.967-6.077 5.12-12.447 5.12-6.847 0-13.54-2.846-14.85-9.618a13.568 13.568 0 01-3.493 3.47c.118-.107.243-.213.364-.326l-.037 1.78 26.432-5.651 24.58-5.26c-.003-.003 11.292-95.783 10.797-96.253zm-38.17 45.92c-3.04 1.02-7.83 4.172-7.83 9.04 0 1.707 1.03 2.848 3.297 2.848 2.088 0 3.895-8.437 4.533-11.887zm16.943-31.897c-.637 1.58-1.498 2.842-2.58 3.902-1.067 1.057-2.338 1.9-3.747 2.666-1.4.758-2.917 1.403-4.472 2.016.477-5.005.47-10.05.099-14.835a175.622 175.622 0 014.972-1.583c2.04-.633 3.945-1.217 5.65-1.76a84.733 84.733 0 01.078 9.594zm6.693-12.62a163.71 163.71 0 00-8.732 2.735c.098 1.217.155 2.454.172 3.65 1.857-.352 3.559-.666 5.112-.985-.183.476-.612.836-1.208.996-1.874.563-3.998 1.207-6.283 1.9.118 2.035.056 3.885-.137 5.566-.315 3.22-.913 5.945-1.828 8.28-1.343 3.457-3.431 5.885-6.12 7.724-2.742 1.853-5.923 3.067-9.462 4.207.039.2.06.34.06.34s1.544 7.523 3.991 7.523c1.403 0 3.367-1.967 5.63-8.419.695 2.092 1.815 3.4 2.55 3.933-3.314 7.699-7.418 12.204-11.58 12.204-2.689 0-4.729-1.77-6.1-5.12-2.918 2.967-6.077 5.12-12.447 5.12-6.847 0-13.54-2.846-14.85-9.618a13.568 13.568 0 01-3.493 3.47 9.94 9.94 0 01-13.063-3.19 7.426 7.426 0 01-.989-2.174 9.131 9.131 0 01-.152-4.226c1.536-7.444 7.845-12.564 14.235-12.564a9.97 9.97 0 019.145 6.072c.35.771.619 1.54.79 2.314l19.455-5.965c-2.069-6.166-3.56-13.065-4.37-18.99-.31.12-.618.18-.928.18-.9 0-1.767-.488-2.19-1.36-.705-1.458.17-3.157 1.722-3.53-1.165-4.392-2.752-6.273-4.242-6.273-.16 0-.312.02-.394.04.11-1.088.274-2.166.477-3.23-.375-.08-.77-.12-1.166-.12-6.612 0-12.612 10.153-15.079 19.592 3.825-1.155 7.75-2.33 11.654-3.51 4.983-1.52 9.878-3.028 14.54-4.467-.578-4.505-1.483-9.118-2.71-12.805-1.613-4.852-4.261-8-8.064-9.098.625.415 1.343 1.59 1.556 4.045.192-.02.394-.04.586-.04 4.609 0 7.484 9.636 8.692 19.273 4.342-1.334 8.563-2.655 12.468-3.872.176 1.842.372 3.605.637 5.266 3.017-.734 9.387-2.093 9.387-2.093.33.12.31.587.31.573z" fill="#fff"/>
  <path d="M171.156 73.456c-3.93-2.128-5.895-3.922-5.895-6.405 0-3.17 2.834-5.185 7.275-5.185 5.184 0 9.82 2.157 9.82 2.157l3.6-11.12s-3.344-2.626-13.079-2.626c-13.589 0-23.069 7.779-23.069 18.72 0 6.213 4.409 10.939 10.303 14.318 4.756 2.691 6.43 4.598 6.43 7.43 0 2.945-2.37 5.32-6.778 5.32-6.547 0-12.723-3.378-12.723-3.378l-3.825 11.12s5.714 3.851 15.302 3.851c13.93 0 23.924-6.851 23.924-19.23.04-6.75-5.074-11.388-11.285-15.006v.034zm51.118-27.18c-6.888 0-12.273 3.24-16.408 8.188h-.218l5.964-31.058h-15.438l-15.167 79.764h15.44l5.181-27.294c2.04-10.188 7.317-16.485 12.276-16.485 3.505 0 4.878 2.365 4.878 5.723 0 2.123-.217 4.772-.678 6.895l-5.876 31.16h15.44l6.087-32.297c.678-3.448.997-7.558.997-10.326.035-8.964-4.504-14.27-12.478-14.27zm44.05 0c-18.473 0-30.774 16.688-30.774 35.215 0 11.86 7.315 21.454 21.02 21.454 18.047 0 30.486-16.146 30.486-35.215.04-10.996-6.334-21.453-20.732-21.453zm-7.654 44.779c-5.183 0-7.318-4.387-7.318-9.874 0-8.67 4.485-22.829 12.722-22.829 5.42 0 7.177 4.656 7.177 9.164 0 9.43-4.482 23.54-12.58 23.54zm58.78-44.779c-10.303 0-20.612 9.164-20.612 9.164h-.214l1.177-8.351h-13.654c-.682 3.581-1.892 8.964-3.092 13.025l-10.487 55.926h15.434l4.18-22.588h.325s4.02 2.026 11.457 2.026c22.86 0 37.789-23.406 37.789-47.012.039-13.101-5.792-22.128-22.303-22.19zm-20.732 46.403c-5.024 0-8.03-2.83-8.03-2.83l3.226-18.185c2.297-12.25 8.713-20.301 15.588-20.301 5.99 0 7.853 5.553 7.853 10.84-.036 12.784-7.89 30.475-18.637 30.475zm43.407-72.85l-15.77 83.474h15.438L305.583 20.4h-15.458zm75.055 52.142c0-8.964-4.504-14.27-12.485-14.27-6.887 0-12.28 3.24-16.407 8.188h-.214l.927-7.376h-13.654c-.678 3.582-1.888 8.964-3.093 13.025l-10.485 55.926h15.434l5.18-27.294c2.041-10.188 7.318-16.485 12.28-16.485 3.51 0 4.882 2.365 4.882 5.723 0 2.123-.214 4.772-.681 6.895l-5.886 31.16h15.453l6.085-32.296c.682-3.45 1.001-7.56 1.001-10.327l-.337-5.87zm44.05-14.27c-18.47 0-30.773 16.688-30.773 35.215 0 11.86 7.31 21.454 21.03 21.454 18.042 0 30.477-16.146 30.477-35.215.004-10.996-6.335-21.453-20.734-21.453zm-7.663 44.779c-5.184 0-7.32-4.387-7.32-9.874 0-8.67 4.498-22.829 12.731-22.829 5.415 0 7.177 4.656 7.177 9.164 0 9.43-4.485 23.54-12.588 23.54zm59.118-43.927h-10.706l.51-2.56c.937-5.398 4.153-10.186 9.443-10.186 2.833 0 5.075.814 5.075.814l3.092-12.514s-2.725-1.36-8.673-1.36c-5.674 0-11.353 1.628-15.665 5.386-5.468 4.773-8.033 11.658-9.315 18.552l-.43 1.865h-7.172l-2.237 11.592h7.17l-8.165 43.25h15.433l8.172-43.25h10.574l2.23-11.589h.664zm27.7 55.352c4.941 0 16.741-1.074 16.741-1.074l3.336-13.242s-6.43 1.496-12.491 1.496c-10.22 0-13.762-5.892-13.762-12.514 0-13.037 6.722-27.51 19.017-27.51 7.55 0 13.593 2.366 13.593 2.366l2.725-13.242s-9.046-3.65-18.35-3.65c-18.834 0-35.681 21.724-35.681 44.775-.004 15.82 8.566 22.595 24.872 22.595z" fill="#000"/>
</svg> 