<svg xmlns="http://www.w3.org/2000/svg" viewBox="0 0 512 145" fill="none">
  <path d="M121.017 35.676a16.761 16.761 0 01-16.78 16.78c-9.263 0-16.78-7.516-16.78-16.78 0-9.263 7.517-16.779 16.78-16.779h16.78v16.78zm8.39 0a16.761 16.761 0 0116.78-16.779c9.263 0 16.779 7.516 16.779 16.78v41.949c0 9.262-7.516 16.78-16.78 16.78a16.762 16.762 0 01-16.78-16.78V35.676z" fill="#E01E5A"/>
  <path d="M146.184 121.017a16.761 16.761 0 01-16.78 16.78c-9.263 0-16.78-7.517-16.78-16.78v-16.78h16.78c9.264 0 16.78 7.517 16.78 16.78zm0-8.39a16.762 16.762 0 0116.78-16.78c9.263 0 16.78 7.517 16.78 16.78v41.949c0 9.263-7.517 16.78-16.78 16.78-9.262 0-16.78-7.517-16.78-16.78v-41.949z" fill="#36C5F0"/>
  <path d="M231.525 121.017a16.762 16.762 0 01-16.78 16.78c-9.263 0-16.78-7.517-16.78-16.78 0-9.263 7.517-16.78 16.78-16.78h16.78v16.78zm8.39 0a16.762 16.762 0 0116.78-16.78c9.264 0 16.78 7.517 16.78 16.78v41.949c0 9.263-7.516 16.78-16.78 16.78-9.262 0-16.78-7.517-16.78-16.78v-41.949z" fill="#2EB67D"/>
  <path d="M231.525 35.676a16.761 16.761 0 01-16.78 16.78c-9.263 0-16.78-7.516-16.78-16.78v-16.78h16.78c9.263 0 16.78 7.517 16.78 16.78zm0-8.389a16.761 16.761 0 0116.78-16.78c9.264 0 16.78 7.517 16.78 16.78v41.95c0 9.262-7.516 16.78-16.78 16.78-9.262 0-16.78-7.517-16.78-16.78v-41.95z" fill="#ECB22E"/>
  <path d="M309.675 90.338c-2.098 5.243-8.39 9.264-14.683 9.264-10.509 0-18.9-8.39-18.9-18.9 0-10.508 8.391-18.899 18.9-18.899 6.293 0 12.585 4.02 14.683 9.263l16.78-9.263c-6.293-13.342-20.222-21.731-35.657-21.731-22.342 0-40.22 17.878-40.22 40.22 0 23.586 17.878 41.464 40.22 41.464 15.435 0 29.364-8.39 35.657-21.731l-16.78-9.687zM352.67 27.286v41.464c13.341-8.39 31.22-1.345 31.22 16.78 0 16.78-17.879 23.585-31.22 14.684v4.195h-21.731V27.286H352.67zm0 58.245c0-5.269-4.195-10.51-10.51-10.51s-10.507 5.241-10.507 10.51c0 5.267 4.195 10.508 10.508 10.508 6.293 0 10.509-5.241 10.509-10.509zM384.914 27.286h21.73v76.853h-21.73V27.286zM421.616 85.121c0-23.586 17.879-41.464 40.22-41.464 22.344 0 40.222 17.878 40.222 41.464 0 23.586-17.878 41.464-40.221 41.464-22.342 0-40.22-17.878-40.22-41.464zm21.731 0c0 10.508 8.39 18.9 18.9 18.9 10.508 0 18.899-8.392 18.899-18.9 0-10.508-8.391-18.899-18.9-18.899-10.509 0-18.9 8.39-18.9 18.9z" fill="#000"/>
</svg> 